M48
; DRILL file KiCad 10.0.0 date 2026-03-28T21:48:08
; FORMAT={-:-/ absolute / metric / decimal}
; #@! TF.CreationDate,2026-03-28T21:48:08+01:00
; #@! TF.GenerationSoftware,Kicad,Pcbnew,10.0.0
; #@! TF.FileFunction,Plated,1,4,PTH
FMAT,2
METRIC
; #@! TA.AperFunction,Plated,PTH,ViaDrill
T1C0.200
%
G90
G05
T1
X112.0Y-93.0
X112.0Y-94.0
X112.0Y-96.0
X112.0Y-97.0
X112.0Y-99.0
X112.0Y-100.0
X112.0Y-102.0
X112.0Y-103.0
X112.0Y-106.0
X112.0Y-107.0
X112.0Y-109.0
X112.0Y-113.0
X112.0Y-115.0
X112.0Y-116.0
X112.0Y-120.0
X112.0Y-128.0
X112.0Y-129.0
X113.0Y-93.0
X113.0Y-94.0
X113.0Y-96.0
X113.0Y-97.0
X113.0Y-99.0
X113.0Y-100.0
X113.0Y-102.0
X113.0Y-103.0
X113.0Y-106.0
X113.0Y-107.0
X113.0Y-109.0
X113.0Y-113.0
X113.0Y-115.0
X113.0Y-116.0
X113.0Y-120.0
X113.0Y-128.0
X113.0Y-129.0
X114.0Y-83.5
X114.0Y-87.0
X114.0Y-93.0
X114.0Y-94.0
X114.0Y-96.0
X114.0Y-97.0
X114.0Y-99.0
X114.0Y-100.0
X114.0Y-102.0
X114.0Y-103.0
X114.0Y-106.0
X114.0Y-107.0
X114.0Y-109.0
X114.0Y-113.0
X114.0Y-115.0
X114.0Y-116.0
X114.0Y-120.0
X114.0Y-128.0
X114.0Y-129.0
X115.0Y-93.0
X115.0Y-94.0
X115.0Y-96.0
X115.0Y-97.0
X115.0Y-99.0
X115.0Y-100.0
X115.0Y-102.0
X115.0Y-103.0
X115.0Y-106.0
X115.0Y-107.0
X115.0Y-109.0
X115.0Y-113.0
X115.0Y-115.0
X115.0Y-116.0
X115.0Y-120.0
X115.0Y-128.0
X115.0Y-129.0
X117.0Y-83.5
X117.0Y-87.0
X118.5Y-89.0
X118.5Y-98.5
X118.5Y-107.5
X118.5Y-124.5
X119.5Y-89.0
X120.5Y-89.0
X121.5Y-89.0
X121.5Y-93.0
X121.5Y-94.0
X121.5Y-96.0
X121.5Y-97.0
X121.5Y-99.0
X121.5Y-100.0
X121.5Y-102.0
X121.5Y-103.0
X121.5Y-106.0
X121.5Y-107.0
X121.5Y-109.0
X121.5Y-113.0
X121.5Y-115.0
X121.5Y-116.0
X121.5Y-120.0
X121.5Y-128.0
X121.5Y-129.0
X122.5Y-89.0
X122.5Y-93.0
X122.5Y-94.0
X122.5Y-96.0
X122.5Y-97.0
X122.5Y-99.0
X122.5Y-100.0
X122.5Y-102.0
X122.5Y-103.0
X122.5Y-106.0
X122.5Y-107.0
X122.5Y-109.0
X122.5Y-113.0
X122.5Y-115.0
X122.5Y-116.0
X122.5Y-120.0
X122.5Y-128.0
X122.5Y-129.0
X123.5Y-89.0
X123.5Y-93.0
X123.5Y-94.0
X123.5Y-96.0
X123.5Y-97.0
X123.5Y-99.0
X123.5Y-100.0
X123.5Y-102.0
X123.5Y-103.0
X123.5Y-106.0
X123.5Y-107.0
X123.5Y-109.0
X123.5Y-113.0
X123.5Y-115.0
X123.5Y-116.0
X123.5Y-120.0
X123.5Y-128.0
X123.5Y-129.0
X124.5Y-93.0
X124.5Y-94.0
X124.5Y-96.0
X124.5Y-97.0
X124.5Y-99.0
X124.5Y-100.0
X124.5Y-102.0
X124.5Y-103.0
X124.5Y-106.0
X124.5Y-107.0
X124.5Y-109.0
X124.5Y-113.0
X124.5Y-115.0
X124.5Y-116.0
X124.5Y-120.0
X124.5Y-128.0
X124.5Y-129.0
X128.0Y-98.5
X128.0Y-106.5
X128.0Y-124.5
X129.0Y-83.5
X129.0Y-87.0
X130.5Y-101.75
X130.5Y-102.5
X130.5Y-103.25
X131.0Y-106.0
X131.0Y-107.0
X131.0Y-109.0
X131.0Y-113.0
X131.0Y-115.0
X131.0Y-116.0
X131.0Y-120.0
X131.0Y-128.0
X131.0Y-129.0
X131.25Y-101.75
X131.25Y-102.5
X131.25Y-103.25
X131.5Y-61.25
X131.5Y-62.25
X131.5Y-63.25
X131.5Y-64.25
X131.5Y-65.25
X131.5Y-66.25
X131.5Y-67.25
X131.5Y-68.25
X131.5Y-69.25
X131.5Y-70.25
X131.5Y-71.25
X131.5Y-72.25
X131.5Y-73.25
X131.5Y-74.25
X131.5Y-75.25
X131.5Y-76.25
X131.5Y-77.25
X131.5Y-78.25
X132.0Y-83.5
X132.0Y-87.0
X132.0Y-101.75
X132.0Y-102.5
X132.0Y-103.25
X132.0Y-106.0
X132.0Y-107.0
X132.0Y-109.0
X132.0Y-113.0
X132.0Y-115.0
X132.0Y-116.0
X132.0Y-120.0
X132.0Y-128.0
X132.0Y-129.0
X132.25Y-78.75
X132.5Y-94.5
X133.0Y-106.0
X133.0Y-107.0
X133.0Y-109.0
X133.0Y-113.0
X133.0Y-115.0
X133.0Y-116.0
X133.0Y-120.0
X133.0Y-128.0
X133.0Y-129.0
X133.25Y-67.5
X133.25Y-69.5
X133.25Y-78.75
X134.0Y-106.0
X134.0Y-107.0
X134.0Y-109.0
X134.0Y-113.0
X134.0Y-115.0
X134.0Y-116.0
X134.0Y-120.0
X134.0Y-128.0
X134.0Y-129.0
X134.25Y-67.5
X134.25Y-69.5
X134.25Y-78.75
X134.75Y-90.5
X135.25Y-67.5
X135.25Y-69.5
X135.25Y-78.75
X136.25Y-78.75
X137.25Y-78.75
X137.5Y-101.75
X137.5Y-102.5
X137.5Y-103.25
X137.5Y-106.5
X137.5Y-124.5
X138.25Y-67.5
X138.25Y-69.5
X138.25Y-78.75
X138.25Y-101.75
X138.25Y-102.5
X138.25Y-103.25
X139.25Y-67.5
X139.25Y-69.5
X139.25Y-78.75
X139.25Y-100.0
X139.25Y-101.75
X140.25Y-67.5
X140.25Y-69.5
X140.25Y-78.75
X140.25Y-79.75
X140.25Y-80.75
X140.25Y-81.75
X140.25Y-82.75
X140.25Y-83.75
X140.25Y-84.75
X140.25Y-85.75
X140.25Y-86.75
X140.25Y-87.75
X140.25Y-88.75
X140.25Y-89.75
X140.25Y-90.75
X140.5Y-120.0
X140.5Y-128.0
X140.5Y-129.0
X141.0Y-91.5
X141.0Y-101.0
X141.0Y-114.5
X141.5Y-105.75
X141.5Y-120.0
X141.5Y-128.0
X141.5Y-129.0
X142.0Y-91.5
X142.25Y-102.75
X142.25Y-103.75
X142.25Y-104.75
X142.25Y-105.75
X142.5Y-95.25
X142.5Y-120.0
X142.5Y-128.0
X142.5Y-129.0
X142.75Y-103.25
X142.75Y-104.25
X142.75Y-105.25
X143.0Y-91.5
X143.0Y-100.75
X143.0Y-101.75
X143.5Y-120.0
X143.5Y-128.0
X143.5Y-129.0
X144.0Y-91.5
X144.0Y-93.5
X144.25Y-114.75
X144.3Y-87.05
X144.75Y-92.0
X145.25Y-86.25
X145.5Y-92.5
X145.75Y-93.5
X146.2Y-87.05
X146.25Y-114.75
X146.5Y-92.5
X146.5Y-93.5
X146.75Y-96.5
X147.0Y-124.5
X147.25Y-97.0
X147.5Y-92.5
X147.5Y-93.5
X147.5Y-101.5
X148.0Y-113.0
X149.0Y-113.0
X150.0Y-113.25
X150.0Y-120.0
X150.0Y-128.0
X150.0Y-129.0
X150.5Y-114.75
X151.0Y-92.5
X151.0Y-96.75
X151.0Y-111.25
X151.0Y-120.0
X151.0Y-128.0
X151.0Y-129.0
X151.5Y-93.5
X151.5Y-106.25
X152.0Y-92.5
X152.0Y-114.75
X152.0Y-120.0
X152.0Y-128.0
X152.0Y-129.0
X152.25Y-97.0
X152.25Y-111.75
X152.5Y-105.25
X152.5Y-106.25
X153.0Y-92.5
X153.0Y-120.0
X153.0Y-128.0
X153.0Y-129.0
X153.25Y-93.5
X153.3Y-87.05
X153.5Y-113.0
X153.5Y-114.75
X154.0Y-92.5
X154.25Y-86.25
X154.75Y-92.0
X155.0Y-113.0
X155.0Y-114.75
X155.2Y-87.05
X155.5Y-91.5
X156.5Y-91.5
X156.5Y-115.0
X156.5Y-124.5
X157.5Y-91.5
X158.5Y-91.5
X159.0Y-67.5
X159.0Y-69.5
X159.25Y-78.75
X159.25Y-79.75
X159.25Y-80.75
X159.25Y-81.75
X159.25Y-82.75
X159.25Y-83.75
X159.25Y-84.75
X159.25Y-85.75
X159.25Y-86.75
X159.25Y-87.75
X159.25Y-88.75
X159.25Y-89.75
X159.25Y-90.75
X159.5Y-128.0
X159.5Y-129.0
X160.0Y-67.5
X160.0Y-69.5
X160.25Y-78.75
X160.5Y-97.25
X160.5Y-98.75
X160.5Y-100.25
X160.5Y-101.75
X160.5Y-103.25
X160.5Y-104.75
X160.5Y-106.25
X160.5Y-107.75
X160.5Y-109.25
X160.5Y-110.75
X160.5Y-120.0
X160.5Y-128.0
X160.5Y-129.0
X161.0Y-67.5
X161.0Y-69.5
X161.25Y-78.75
X161.3Y-82.8
X161.3Y-84.7
X161.5Y-120.0
X161.5Y-128.0
X161.5Y-129.0
X162.25Y-78.75
X162.25Y-97.25
X162.25Y-98.75
X162.25Y-100.25
X162.25Y-101.75
X162.25Y-103.25
X162.25Y-104.75
X162.25Y-106.25
X162.25Y-107.75
X162.25Y-109.25
X162.25Y-110.75
X162.5Y-120.0
X162.5Y-128.0
X162.5Y-129.0
X163.25Y-78.75
X163.75Y-97.25
X163.75Y-98.75
X163.75Y-100.25
X163.75Y-101.75
X163.75Y-103.25
X163.75Y-104.75
X163.75Y-106.25
X163.75Y-107.75
X163.75Y-109.25
X164.0Y-67.5
X164.0Y-69.5
X164.25Y-78.75
X164.75Y-88.75
X165.0Y-67.5
X165.0Y-69.5
X165.25Y-78.75
X165.5Y-97.25
X165.5Y-98.75
X165.5Y-100.25
X165.5Y-101.75
X165.5Y-103.25
X165.5Y-104.75
X165.5Y-106.25
X165.5Y-107.75
X165.5Y-109.25
X166.0Y-67.5
X166.0Y-69.5
X166.0Y-124.5
X166.25Y-78.75
X167.25Y-78.75
X167.75Y-61.25
X167.75Y-62.25
X167.75Y-63.25
X167.75Y-64.25
X167.75Y-65.25
X167.75Y-66.25
X167.75Y-67.25
X167.75Y-68.25
X167.75Y-69.25
X167.75Y-70.25
X167.75Y-71.25
X167.75Y-72.25
X167.75Y-73.25
X167.75Y-74.25
X167.75Y-75.25
X167.75Y-76.25
X167.75Y-77.25
X167.75Y-78.25
X168.0Y-83.5
X168.0Y-87.0
X168.0Y-108.5
X169.0Y-120.0
X169.0Y-128.0
X169.0Y-129.0
X170.0Y-95.25
X170.0Y-120.0
X170.0Y-128.0
X170.0Y-129.0
X170.406Y-91.469
X171.0Y-83.5
X171.0Y-87.0
X171.0Y-120.0
X171.0Y-128.0
X171.0Y-129.0
X172.0Y-91.5
X172.0Y-95.25
X172.0Y-120.0
X172.0Y-128.0
X172.0Y-129.0
X174.0Y-91.5
X174.0Y-95.25
X175.5Y-124.5
X176.0Y-91.5
X176.0Y-95.25
X176.5Y-89.0
X178.0Y-91.5
X178.0Y-95.25
X178.5Y-120.0
X178.5Y-128.0
X178.5Y-129.0
X179.5Y-120.0
X179.5Y-128.0
X179.5Y-129.0
X180.0Y-91.5
X180.0Y-95.25
X180.5Y-120.0
X180.5Y-128.0
X180.5Y-129.0
X181.5Y-89.0
X181.5Y-120.0
X181.5Y-128.0
X181.5Y-129.0
X181.75Y-91.5
X182.0Y-95.25
X182.5Y-104.0
X182.5Y-105.0
X183.0Y-83.5
X183.0Y-87.0
X183.0Y-124.5
X183.206Y-91.5
X183.5Y-104.0
X184.0Y-95.25
X184.5Y-104.0
X186.0Y-83.5
X186.0Y-87.0
M30
