%TF.GenerationSoftware,KiCad,Pcbnew,10.0.0*%
%TF.CreationDate,2026-03-28T21:48:02+01:00*%
%TF.ProjectId,PUTM_EV_AMS_SLAVE,5055544d-5f45-4565-9f41-4d535f534c41,rev?*%
%TF.SameCoordinates,Original*%
%TF.FileFunction,Paste,Top*%
%TF.FilePolarity,Positive*%
%FSLAX46Y46*%
G04 Gerber Fmt 4.6, Leading zero omitted, Abs format (unit mm)*
G04 Created by KiCad (PCBNEW 10.0.0) date 2026-03-28 21:48:02*
%MOMM*%
%LPD*%
G01*
G04 APERTURE LIST*
G04 Aperture macros list*
%AMRoundRect*
0 Rectangle with rounded corners*
0 $1 Rounding radius*
0 $2 $3 $4 $5 $6 $7 $8 $9 X,Y pos of 4 corners*
0 Add a 4 corners polygon primitive as box body*
4,1,4,$2,$3,$4,$5,$6,$7,$8,$9,$2,$3,0*
0 Add four circle primitives for the rounded corners*
1,1,$1+$1,$2,$3*
1,1,$1+$1,$4,$5*
1,1,$1+$1,$6,$7*
1,1,$1+$1,$8,$9*
0 Add four rect primitives between the rounded corners*
20,1,$1+$1,$2,$3,$4,$5,0*
20,1,$1+$1,$4,$5,$6,$7,0*
20,1,$1+$1,$6,$7,$8,$9,0*
20,1,$1+$1,$8,$9,$2,$3,0*%
G04 Aperture macros list end*
%ADD10RoundRect,0.225000X0.225000X0.250000X-0.225000X0.250000X-0.225000X-0.250000X0.225000X-0.250000X0*%
%ADD11RoundRect,0.200000X0.275000X-0.200000X0.275000X0.200000X-0.275000X0.200000X-0.275000X-0.200000X0*%
%ADD12R,0.600000X1.900000*%
%ADD13R,2.100000X2.800000*%
%ADD14RoundRect,0.250000X1.425000X-0.362500X1.425000X0.362500X-1.425000X0.362500X-1.425000X-0.362500X0*%
%ADD15RoundRect,0.218750X-0.256250X0.218750X-0.256250X-0.218750X0.256250X-0.218750X0.256250X0.218750X0*%
%ADD16RoundRect,0.225000X-0.225000X-0.250000X0.225000X-0.250000X0.225000X0.250000X-0.225000X0.250000X0*%
%ADD17RoundRect,0.225000X0.250000X-0.225000X0.250000X0.225000X-0.250000X0.225000X-0.250000X-0.225000X0*%
%ADD18R,1.050000X1.550000*%
%ADD19RoundRect,0.375000X-0.375000X0.625000X-0.375000X-0.625000X0.375000X-0.625000X0.375000X0.625000X0*%
%ADD20RoundRect,0.500000X-1.400000X0.500000X-1.400000X-0.500000X1.400000X-0.500000X1.400000X0.500000X0*%
%ADD21RoundRect,0.200000X0.200000X0.275000X-0.200000X0.275000X-0.200000X-0.275000X0.200000X-0.275000X0*%
%ADD22RoundRect,0.225000X-0.250000X0.225000X-0.250000X-0.225000X0.250000X-0.225000X0.250000X0.225000X0*%
%ADD23RoundRect,0.150000X-0.587500X-0.150000X0.587500X-0.150000X0.587500X0.150000X-0.587500X0.150000X0*%
%ADD24RoundRect,0.200000X-0.275000X0.200000X-0.275000X-0.200000X0.275000X-0.200000X0.275000X0.200000X0*%
%ADD25RoundRect,0.218750X0.218750X0.256250X-0.218750X0.256250X-0.218750X-0.256250X0.218750X-0.256250X0*%
%ADD26RoundRect,0.075000X0.075000X0.662500X-0.075000X0.662500X-0.075000X-0.662500X0.075000X-0.662500X0*%
%ADD27RoundRect,0.075000X0.662500X-0.075000X0.662500X0.075000X-0.662500X0.075000X-0.662500X-0.075000X0*%
%ADD28RoundRect,0.250000X3.000000X-3.000000X3.000000X3.000000X-3.000000X3.000000X-3.000000X-3.000000X0*%
%ADD29RoundRect,0.250000X1.375000X-0.250000X1.375000X0.250000X-1.375000X0.250000X-1.375000X-0.250000X0*%
%ADD30RoundRect,0.250000X0.475000X-0.250000X0.475000X0.250000X-0.475000X0.250000X-0.475000X-0.250000X0*%
%ADD31RoundRect,0.250000X-1.375000X0.250000X-1.375000X-0.250000X1.375000X-0.250000X1.375000X0.250000X0*%
%ADD32RoundRect,0.200000X-0.200000X-0.275000X0.200000X-0.275000X0.200000X0.275000X-0.200000X0.275000X0*%
G04 APERTURE END LIST*
D10*
%TO.C,C5*%
X164775000Y-109250000D03*
X163225000Y-109250000D03*
%TD*%
D11*
%TO.C,R34*%
X128000000Y-100825000D03*
X128000000Y-99175000D03*
%TD*%
D10*
%TO.C,C10*%
X164775000Y-101750000D03*
X163225000Y-101750000D03*
%TD*%
D11*
%TO.C,R22*%
X118500000Y-126825000D03*
X118500000Y-125175000D03*
%TD*%
D12*
%TO.C,J7*%
X181500000Y-87572000D03*
X180500000Y-87572000D03*
X179500000Y-87572000D03*
X178500000Y-87572000D03*
X177500000Y-87572000D03*
X176500000Y-87572000D03*
X175500000Y-87572000D03*
X174500000Y-87572000D03*
X173500000Y-87572000D03*
X172500000Y-87572000D03*
D13*
X184500000Y-85222000D03*
X169500000Y-85222000D03*
%TD*%
D14*
%TO.C,R80*%
X113500000Y-113962500D03*
X113500000Y-108037500D03*
%TD*%
D15*
%TO.C,D8*%
X135500000Y-108212500D03*
X135500000Y-109787500D03*
%TD*%
D11*
%TO.C,R8*%
X156500000Y-126825000D03*
X156500000Y-125175000D03*
%TD*%
%TO.C,R37*%
X118500000Y-100825000D03*
X118500000Y-99175000D03*
%TD*%
D10*
%TO.C,C24*%
X161525000Y-104750000D03*
X159975000Y-104750000D03*
%TD*%
D16*
%TO.C,C49*%
X142750000Y-87750000D03*
X144300000Y-87750000D03*
%TD*%
D12*
%TO.C,J6*%
X127500000Y-87572000D03*
X126500000Y-87572000D03*
X125500000Y-87572000D03*
X124500000Y-87572000D03*
X123500000Y-87572000D03*
X122500000Y-87572000D03*
X121500000Y-87572000D03*
X120500000Y-87572000D03*
X119500000Y-87572000D03*
X118500000Y-87572000D03*
D13*
X130500000Y-85222000D03*
X115500000Y-85222000D03*
%TD*%
D10*
%TO.C,C26*%
X161525000Y-101750000D03*
X159975000Y-101750000D03*
%TD*%
%TO.C,C6*%
X164775000Y-107750000D03*
X163225000Y-107750000D03*
%TD*%
D17*
%TO.C,C45*%
X145750000Y-95775000D03*
X145750000Y-94225000D03*
%TD*%
%TO.C,C4*%
X144000000Y-95775000D03*
X144000000Y-94225000D03*
%TD*%
%TO.C,C38*%
X146250000Y-113775000D03*
X146250000Y-112225000D03*
%TD*%
D11*
%TO.C,R47*%
X116500000Y-113825000D03*
X116500000Y-112175000D03*
%TD*%
D17*
%TO.C,C1*%
X149000000Y-114025000D03*
X149000000Y-112475000D03*
%TD*%
D18*
%TO.C,T1*%
X156790000Y-72925000D03*
X154250000Y-72925000D03*
X151710000Y-72925000D03*
X151710000Y-81575000D03*
X154250000Y-81575000D03*
X156790000Y-81575000D03*
%TD*%
D11*
%TO.C,R44*%
X116500000Y-126825000D03*
X116500000Y-125175000D03*
%TD*%
D10*
%TO.C,C7*%
X164775000Y-106250000D03*
X163225000Y-106250000D03*
%TD*%
D15*
%TO.C,D7*%
X116500000Y-121212500D03*
X116500000Y-122787500D03*
%TD*%
D17*
%TO.C,C41*%
X147500000Y-95775000D03*
X147500000Y-94225000D03*
%TD*%
D10*
%TO.C,C44*%
X141775000Y-100000000D03*
X140225000Y-100000000D03*
%TD*%
D19*
%TO.C,Q2*%
X137050000Y-96100000D03*
X134750000Y-96100000D03*
D20*
X134750000Y-102400000D03*
D19*
X132450000Y-96100000D03*
%TD*%
D12*
%TO.C,J8*%
X172500000Y-103928000D03*
X173500000Y-103928000D03*
X174500000Y-103928000D03*
X175500000Y-103928000D03*
X176500000Y-103928000D03*
X177500000Y-103928000D03*
X178500000Y-103928000D03*
X179500000Y-103928000D03*
X180500000Y-103928000D03*
X181500000Y-103928000D03*
D13*
X169500000Y-106278000D03*
X184500000Y-106278000D03*
%TD*%
D21*
%TO.C,R61*%
X164075000Y-88750000D03*
X162425000Y-88750000D03*
%TD*%
D15*
%TO.C,D6*%
X126000000Y-121212500D03*
X126000000Y-122787500D03*
%TD*%
%TO.C,D4*%
X145000000Y-121212500D03*
X145000000Y-122787500D03*
%TD*%
D22*
%TO.C,C50*%
X154250000Y-83975000D03*
X154250000Y-85525000D03*
%TD*%
D10*
%TO.C,C8*%
X164775000Y-104750000D03*
X163225000Y-104750000D03*
%TD*%
D17*
%TO.C,C43*%
X153250000Y-95775000D03*
X153250000Y-94225000D03*
%TD*%
D14*
%TO.C,R74*%
X142000000Y-126962500D03*
X142000000Y-121037500D03*
%TD*%
%TO.C,R78*%
X132500000Y-113962500D03*
X132500000Y-108037500D03*
%TD*%
D11*
%TO.C,R52*%
X144250000Y-113825000D03*
X144250000Y-112175000D03*
%TD*%
D10*
%TO.C,C22*%
X161525000Y-107750000D03*
X159975000Y-107750000D03*
%TD*%
D22*
%TO.C,C51*%
X145250000Y-83975000D03*
X145250000Y-85525000D03*
%TD*%
D14*
%TO.C,R51*%
X180000000Y-126962500D03*
X180000000Y-121037500D03*
%TD*%
D11*
%TO.C,R39*%
X164000000Y-126825000D03*
X164000000Y-125175000D03*
%TD*%
D10*
%TO.C,C27*%
X161525000Y-100250000D03*
X159975000Y-100250000D03*
%TD*%
D14*
%TO.C,R79*%
X123000000Y-113962500D03*
X123000000Y-108037500D03*
%TD*%
%TO.C,R71*%
X170500000Y-126962500D03*
X170500000Y-121037500D03*
%TD*%
D10*
%TO.C,C23*%
X161525000Y-106250000D03*
X159975000Y-106250000D03*
%TD*%
D11*
%TO.C,R38*%
X173500000Y-126825000D03*
X173500000Y-125175000D03*
%TD*%
D14*
%TO.C,R77*%
X113500000Y-126962500D03*
X113500000Y-121037500D03*
%TD*%
D10*
%TO.C,C9*%
X164775000Y-103250000D03*
X163225000Y-103250000D03*
%TD*%
D23*
%TO.C,Q1*%
X162312500Y-82800000D03*
X162312500Y-84700000D03*
X164187500Y-83750000D03*
%TD*%
D24*
%TO.C,R70*%
X137250000Y-84425000D03*
X137250000Y-86075000D03*
%TD*%
D17*
%TO.C,C3*%
X155000000Y-114025000D03*
X155000000Y-112475000D03*
%TD*%
D24*
%TO.C,R65*%
X180000000Y-92925000D03*
X180000000Y-94575000D03*
%TD*%
D14*
%TO.C,R82*%
X113500000Y-100962500D03*
X113500000Y-95037500D03*
%TD*%
%TO.C,R76*%
X123000000Y-126962500D03*
X123000000Y-121037500D03*
%TD*%
D10*
%TO.C,C11*%
X164775000Y-100250000D03*
X163225000Y-100250000D03*
%TD*%
D11*
%TO.C,R48*%
X126000000Y-100825000D03*
X126000000Y-99175000D03*
%TD*%
D24*
%TO.C,R54*%
X137250000Y-87925000D03*
X137250000Y-89575000D03*
%TD*%
D14*
%TO.C,R73*%
X151500000Y-126962500D03*
X151500000Y-121037500D03*
%TD*%
D11*
%TO.C,R16*%
X137500000Y-126825000D03*
X137500000Y-125175000D03*
%TD*%
D17*
%TO.C,C40*%
X151500000Y-95775000D03*
X151500000Y-94225000D03*
%TD*%
D25*
%TO.C,D18*%
X164037500Y-86750000D03*
X162462500Y-86750000D03*
%TD*%
D16*
%TO.C,C46*%
X151750000Y-87750000D03*
X153300000Y-87750000D03*
%TD*%
D11*
%TO.C,R28*%
X128000000Y-113825000D03*
X128000000Y-112175000D03*
%TD*%
D24*
%TO.C,R53*%
X137250000Y-91425000D03*
X137250000Y-93075000D03*
%TD*%
D15*
%TO.C,D2*%
X164000000Y-121212500D03*
X164000000Y-122787500D03*
%TD*%
D11*
%TO.C,R49*%
X116500000Y-100825000D03*
X116500000Y-99175000D03*
%TD*%
D15*
%TO.C,D11*%
X126000000Y-95212500D03*
X126000000Y-96787500D03*
%TD*%
D24*
%TO.C,R62*%
X184000000Y-92925000D03*
X184000000Y-94575000D03*
%TD*%
D26*
%TO.C,IC2*%
X146250000Y-109738000D03*
X146750000Y-109738000D03*
X147250000Y-109738000D03*
X147750000Y-109738000D03*
X148250000Y-109738000D03*
X148750000Y-109738000D03*
X149250000Y-109738000D03*
X149750000Y-109738000D03*
X150250000Y-109738000D03*
X150750000Y-109738000D03*
X151250000Y-109738000D03*
X151750000Y-109738000D03*
X152250000Y-109738000D03*
X152750000Y-109738000D03*
X153250000Y-109738000D03*
X153750000Y-109738000D03*
D27*
X155738000Y-107750000D03*
X155738000Y-107250000D03*
X155738000Y-106750000D03*
X155738000Y-106250000D03*
X155738000Y-105750000D03*
X155738000Y-105250000D03*
X155738000Y-104750000D03*
X155738000Y-104250000D03*
X155738000Y-103750000D03*
X155738000Y-103250000D03*
X155738000Y-102750000D03*
X155738000Y-102250000D03*
X155738000Y-101750000D03*
X155738000Y-101250000D03*
X155738000Y-100750000D03*
X155738000Y-100250000D03*
D26*
X153750000Y-98262000D03*
X153250000Y-98262000D03*
X152750000Y-98262000D03*
X152250000Y-98262000D03*
X151750000Y-98262000D03*
X151250000Y-98262000D03*
X150750000Y-98262000D03*
X150250000Y-98262000D03*
X149750000Y-98262000D03*
X149250000Y-98262000D03*
X148750000Y-98262000D03*
X148250000Y-98262000D03*
X147750000Y-98262000D03*
X147250000Y-98262000D03*
X146750000Y-98262000D03*
X146250000Y-98262000D03*
D27*
X144262000Y-100250000D03*
X144262000Y-100750000D03*
X144262000Y-101250000D03*
X144262000Y-101750000D03*
X144262000Y-102250000D03*
X144262000Y-102750000D03*
X144262000Y-103250000D03*
X144262000Y-103750000D03*
X144262000Y-104250000D03*
X144262000Y-104750000D03*
X144262000Y-105250000D03*
X144262000Y-105750000D03*
X144262000Y-106250000D03*
X144262000Y-106750000D03*
X144262000Y-107250000D03*
X144262000Y-107750000D03*
D28*
X150000000Y-104000000D03*
%TD*%
D29*
%TO.C,J2*%
X139375000Y-69500000D03*
X139375000Y-67500000D03*
X134125000Y-69500000D03*
X134125000Y-67500000D03*
%TD*%
D11*
%TO.C,R42*%
X135500000Y-126825000D03*
X135500000Y-125175000D03*
%TD*%
D24*
%TO.C,R67*%
X174000000Y-92925000D03*
X174000000Y-94575000D03*
%TD*%
D17*
%TO.C,C2*%
X150500000Y-114025000D03*
X150500000Y-112475000D03*
%TD*%
D30*
%TO.C,C39*%
X134750000Y-93200000D03*
X134750000Y-91300000D03*
%TD*%
D11*
%TO.C,R50*%
X183000000Y-126825000D03*
X183000000Y-125175000D03*
%TD*%
%TO.C,R57*%
X147750000Y-85575000D03*
X147750000Y-83925000D03*
%TD*%
D14*
%TO.C,R72*%
X161000000Y-126962500D03*
X161000000Y-121037500D03*
%TD*%
D10*
%TO.C,C20*%
X161525000Y-110750000D03*
X159975000Y-110750000D03*
%TD*%
D11*
%TO.C,R19*%
X128000000Y-126825000D03*
X128000000Y-125175000D03*
%TD*%
D24*
%TO.C,R59*%
X151750000Y-83925000D03*
X151750000Y-85575000D03*
%TD*%
D31*
%TO.C,J1*%
X159875000Y-67500000D03*
X159875000Y-69500000D03*
X165125000Y-67500000D03*
X165125000Y-69500000D03*
%TD*%
D11*
%TO.C,R13*%
X147000000Y-126825000D03*
X147000000Y-125175000D03*
%TD*%
D24*
%TO.C,R69*%
X172000000Y-92925000D03*
X172000000Y-94575000D03*
%TD*%
D11*
%TO.C,R45*%
X135500000Y-113825000D03*
X135500000Y-112175000D03*
%TD*%
%TO.C,R25*%
X137500000Y-113825000D03*
X137500000Y-112175000D03*
%TD*%
D10*
%TO.C,C28*%
X161525000Y-98750000D03*
X159975000Y-98750000D03*
%TD*%
D24*
%TO.C,R66*%
X176000000Y-92925000D03*
X176000000Y-94575000D03*
%TD*%
D21*
%TO.C,R55*%
X146075000Y-89750000D03*
X144425000Y-89750000D03*
%TD*%
D17*
%TO.C,C19*%
X153500000Y-114025000D03*
X153500000Y-112475000D03*
%TD*%
D15*
%TO.C,D9*%
X126000000Y-108212500D03*
X126000000Y-109787500D03*
%TD*%
D10*
%TO.C,C48*%
X147750000Y-87750000D03*
X146200000Y-87750000D03*
%TD*%
D11*
%TO.C,R41*%
X145000000Y-126825000D03*
X145000000Y-125175000D03*
%TD*%
D10*
%TO.C,C13*%
X164775000Y-97250000D03*
X163225000Y-97250000D03*
%TD*%
D15*
%TO.C,D3*%
X154500000Y-121212500D03*
X154500000Y-122787500D03*
%TD*%
D14*
%TO.C,R81*%
X123000000Y-100962500D03*
X123000000Y-95037500D03*
%TD*%
D24*
%TO.C,R64*%
X178000000Y-92925000D03*
X178000000Y-94575000D03*
%TD*%
D15*
%TO.C,D10*%
X116500000Y-108212500D03*
X116500000Y-109787500D03*
%TD*%
D11*
%TO.C,R43*%
X126000000Y-126825000D03*
X126000000Y-125175000D03*
%TD*%
D15*
%TO.C,D12*%
X116500000Y-95212500D03*
X116500000Y-96787500D03*
%TD*%
D10*
%TO.C,C21*%
X161525000Y-109250000D03*
X159975000Y-109250000D03*
%TD*%
D11*
%TO.C,R5*%
X166000000Y-126825000D03*
X166000000Y-125175000D03*
%TD*%
D17*
%TO.C,C18*%
X152000000Y-114025000D03*
X152000000Y-112475000D03*
%TD*%
D15*
%TO.C,D1*%
X173500000Y-121212500D03*
X173500000Y-122787500D03*
%TD*%
D32*
%TO.C,R58*%
X153425000Y-89750000D03*
X155075000Y-89750000D03*
%TD*%
D11*
%TO.C,R46*%
X126000000Y-113825000D03*
X126000000Y-112175000D03*
%TD*%
%TO.C,R3*%
X175500000Y-126825000D03*
X175500000Y-125175000D03*
%TD*%
%TO.C,R31*%
X118500000Y-113825000D03*
X118500000Y-112175000D03*
%TD*%
%TO.C,R60*%
X156750000Y-85575000D03*
X156750000Y-83925000D03*
%TD*%
%TO.C,R40*%
X154500000Y-126825000D03*
X154500000Y-125175000D03*
%TD*%
D10*
%TO.C,C47*%
X156750000Y-87750000D03*
X155200000Y-87750000D03*
%TD*%
D15*
%TO.C,D5*%
X135500000Y-121212500D03*
X135500000Y-122787500D03*
%TD*%
D18*
%TO.C,T2*%
X147790000Y-72925000D03*
X145250000Y-72925000D03*
X142710000Y-72925000D03*
X142710000Y-81575000D03*
X145250000Y-81575000D03*
X147790000Y-81575000D03*
%TD*%
D10*
%TO.C,C29*%
X161525000Y-97250000D03*
X159975000Y-97250000D03*
%TD*%
%TO.C,C25*%
X161525000Y-103250000D03*
X159975000Y-103250000D03*
%TD*%
%TO.C,C42*%
X141775000Y-101750000D03*
X140225000Y-101750000D03*
%TD*%
D24*
%TO.C,R63*%
X182000000Y-92925000D03*
X182000000Y-94575000D03*
%TD*%
%TO.C,R68*%
X170000000Y-92925000D03*
X170000000Y-94575000D03*
%TD*%
D10*
%TO.C,C12*%
X164775000Y-98750000D03*
X163225000Y-98750000D03*
%TD*%
D24*
%TO.C,R56*%
X142750000Y-83925000D03*
X142750000Y-85575000D03*
%TD*%
D14*
%TO.C,R75*%
X132500000Y-126962500D03*
X132500000Y-121037500D03*
%TD*%
M02*
